# xmcd
#
# Track frame offsets:
#	150
#	18077
#	44470
#	71969
#	94694
#	120378
#	142858
#	169364
#	198932
#	233874
#	269300
#	280724
#	308386
#
# Disc length: 4569 seconds
# Revision: 0
# Processed by: cddbd v1.5.2PL0 Copyright (c) Steve Scherf et al.
# Submitted via: dBpowerAMP V12.0
#
DISCID=aa11d70d
DTITLE=Haruki Murakami - Die Pilgerjahre des farblosen Herrn Tazaki CD2
DYEAR=1900
DGENRE=Audiobook
TTITLE0=016
TTITLE1=017
TTITLE2=018
TTITLE3=019
TTITLE4=020
TTITLE5=021
TTITLE6=022
TTITLE7=023
TTITLE8=024
TTITLE9=025
TTITLE10=026
TTITLE11=027
TTITLE12=028
EXTD=
EXTT0=
EXTT1=
EXTT2=
EXTT3=
EXTT4=
EXTT5=
EXTT6=
EXTT7=
EXTT8=
EXTT9=
EXTT10=
EXTT11=
EXTT12=
PLAYORDER=
